<mxfile host="app.diagrams.net" modified="2024-03-08T01:43:57.460Z" agent="Mozilla/5.0 (Macintosh; Intel Mac OS X 10.15; rv:123.0) Gecko/20100101 Firefox/123.0" version="24.0.0" etag="faBSXDqR6O75CxqTI10l" type="github">
  <diagram name="Page-1" id="hjqz-s7agjdwuwA-WYH3">
    <mxGraphModel>
      <root>
        <mxCell id="0" />
        <mxCell id="1" parent="0" />
      </root>
    </mxGraphModel>
  </diagram>
</mxfile>
